<svg id="Camada_1" data-name="Camada 1" xmlns="http://www.w3.org/2000/svg" viewBox="0 0 487.79 51.07"><defs><style>.cls-1{fill:#007ec4;}.cls-1,.cls-2,.cls-3,.cls-4{fill-rule:evenodd;}.cls-2{fill:#fefefe;}.cls-3{fill:#009d6d;}.cls-4{fill:#fdbf58;}</style></defs><path class="cls-1" d="M151,533.33c-.12.5-.31,1.07-.44,1.57H151v-1.57ZM531.91,529v-.18c-2.94.12-5.06.12-6.5.12H522c.57-2.7,1.14-5.28,1.76-7.92s1.32-5.53,2.14-8.61h-9c-.5,2.64-1,5.15-1.51,7.61s-1.13,4.84-1.76,7.35-1.32,5.09-2.07,7.54h19l1.41-5.91ZM132.72,512.4h13.2a6.53,6.53,0,0,1,3.46.88,4.59,4.59,0,0,1,1.63,2v5.28a11.81,11.81,0,0,1-1.25,2.52,9.79,9.79,0,0,1-8.18,4,9.26,9.26,0,0,1-2-.13l-.37-5.34a3,3,0,0,0,.88.19,3.46,3.46,0,0,0,1.82-.5,2.37,2.37,0,0,0,.88-1.51,1.25,1.25,0,0,0-.19-1.2c-.19-.31-.69-.5-1.57-.5-.13,0-.25.06-.38.06s-.31.07-.56.07-.57.06-.82.12c-.5,1.89-.94,3.77-1.32,5.6s-.75,3.7-1.13,5.53-.69,3.58-1,5.4h-8.17c.5-1.76.94-3.64,1.45-5.65s.88-3.84,1.25-5.6.82-3.58,1.2-5.47.75-3.9,1.13-5.78ZM176.47,534v.88h-.25c.06-.31.19-.56.25-.88Zm0-18.29v3.58a8.45,8.45,0,0,1-1.57,3.21,9.56,9.56,0,0,1-3.9,2.7c.13,1,.25,2,.44,3s.38,2.26.63,3.71.5,2.39.57,2.95h-9.18c-.25-5.59-.57-9.87-.88-12.76a4.61,4.61,0,0,0,1.44.19,5.71,5.71,0,0,0,2.71-.63,2.35,2.35,0,0,0,1.25-1.76c.19-.81-.06-1.32-.62-1.51a9.68,9.68,0,0,0-2.71-.31h-2c-.25.94-.5,2.26-.88,3.9s-.69,3.08-1,4.46-.57,2.83-.88,4.21-.51,2.83-.82,4.21H151v-1.57c.38-1.32.76-2.64,1.07-4,.44-1.76.88-3.64,1.32-5.66s.88-3.83,1.2-5.59.69-3.71,1.06-5.72H169c4.21,0,6.73,1.13,7.48,3.33ZM151,515.29v5.28a10.56,10.56,0,0,0,.32-1.32,7.27,7.27,0,0,0-.13-3.52c-.06-.13-.12-.31-.19-.44Zm25.46,4a1.84,1.84,0,0,0,.13-.63,5.63,5.63,0,0,0-.13-2.95v3.58Zm0,15.59h19.61l1.45-6.22c-3.77.19-6.85.31-9.24.31-.44,0-1.07-.06-1.95-.06l.57-2.32H196l1.38-6c-2.45.13-4.33.13-5.59.13h-3.46l.63-2.33h4.65c2.77,0,4.84,0,6.23.13l1.38-6.1h-19.8c-1.64,8.67-3.33,15.84-5,21.62v.88Zm52.43-8.61c-.57,2.64-1.32,5.53-2.08,8.61h2.08v-8.61Zm0-13.89v3.08L215.76,534.9H206c-.25-1.69-.5-3.45-.81-5.4s-.51-3.46-.76-4.78-.5-3-.94-5.34-.76-4.59-1.2-7h8.93c.06.88.25,2.14.38,3.83s.37,3.15.5,4.34.25,2.33.38,3.58.19,2.52.25,3.65h.06c.69-1.19,1.26-2.26,1.82-3.27s1.45-2.26,2.58-4.15,2.08-3.39,2.77-4.52,1.38-2.27,2-3.46Zm0,3.08L231,512.4H228.9v3.08Zm11.56,18.17c-.12.44-.19.81-.31,1.25h.31v-1.25Zm0-21.25v1.38c-.37,1.64-.75,3.21-1.13,4.72-.44,1.82-.88,3.64-1.19,5.21s-.76,3.52-1.2,5.54-.69,3.89-1,5.65h-7v-8.61c1.25-5.34,2.26-10,2.95-13.89Zm0,1.38c.13-.44.25-.88.38-1.38h-.38v1.38Zm13.27-1.38v6a5.68,5.68,0,0,0-1.57.13l-2.33,10.37a8.83,8.83,0,0,0,1.38.06,7.34,7.34,0,0,0,2.52-.38v6.35H240.46v-1.25c.88-3.15,1.64-6.23,2.33-9.37.75-3.46,1.57-7.48,2.39-11.88Zm29.1-2.26-.69-1.26-1,1.26h-4.77l2.13-3.71h8.36l1,3.71Zm-29.1,24.76a12.07,12.07,0,0,0,4.4-.94,11.81,11.81,0,0,0,4-2.64,15.05,15.05,0,0,0,2.7-3.83,16.69,16.69,0,0,0,1.45-4.59,11.58,11.58,0,0,0,.12-4.4,7.36,7.36,0,0,0-1.25-3.33,6.22,6.22,0,0,0-2.64-2.08,10.2,10.2,0,0,0-3.84-.69h-5v6h.12c3,0,4.21,1.51,3.71,4.59a9,9,0,0,1-2,4.4,4.62,4.62,0,0,1-1.82,1.19v6.35Zm37.46-1.82c-.12.63-.31,1.19-.44,1.82h.44v-1.82Zm0-20.68v2.14l-.88,4c-1.38-.13-3.46-.13-6.22-.13h-4.65l-.63,2.33h3.46c1.25,0,3.14,0,5.59-.13l-1.38,6h-9.12l-.56,2.32c.81,0,1.51.06,1.95.06,2.38,0,5.46-.12,9.24-.31l-1.45,6.22H266.68c1.69-5.91,3.45-13.39,5.21-22.5Zm0,2.14.5-2.14h-.5v2.14Zm0,20.36v-1.82c2.08-8.11,3.65-14.9,4.65-20.68h10.25c.44,1.32.88,2.7,1.32,4.15s.88,3,1.32,4.4.82,2.76,1.19,4.08H310c.88-3.77,1.82-8,2.7-12.63h7.86c-2.2,8.49-4,16-5.28,22.5h-10c-.25-.69-.63-1.69-1.07-3.08s-.94-2.57-1.25-3.71-.69-2.07-1-3-.5-1.7-.69-2.51h-.06c-.38,1.76-.76,3.26-1,4.52s-.56,2.58-.82,4-.5,2.64-.69,3.77Zm52.24-2.07c-.19.69-.38,1.38-.5,2.07h.5v-2.07Zm0-20.31v4l-.31,2.46a17.92,17.92,0,0,0-5-.88,8.4,8.4,0,0,0-4,.94,8.26,8.26,0,0,0-2.77,2.33,7.13,7.13,0,0,0-1.38,2.89,3.86,3.86,0,0,0,1.07,3.77,5.55,5.55,0,0,0,3.77,1.26,24.93,24.93,0,0,0,6.22-1l-2.33,6.6a41.69,41.69,0,0,1-6.34.44,16.62,16.62,0,0,1-6.29-1.07,8.22,8.22,0,0,1-4.21-3.64,8.87,8.87,0,0,1-.69-6.29,13.68,13.68,0,0,1,3.27-6.85,15.3,15.3,0,0,1,6-4.21,20.66,20.66,0,0,1,7.23-1.32,45.22,45.22,0,0,1,5.78.56Zm0,4,.5-3.89c-.19,0-.31-.07-.5-.07v4Zm11.44,15.72c-.69.88-1.38,1.82-2.07,2.7h2.07v-2.7Zm0-19.8v8.36c-.25,1.07-.5,2.07-.69,3-.38,1.7-.76,3.52-1.13,5.54s-.76,3.89-1.07,5.65h-8.55v-2.07c2-8.24,3.52-15,4.46-20.43Zm0,8.36c.19-.75.31-1.51.5-2.26.44-1.89.95-3.9,1.51-6.1h-2v8.36ZM371,512.4v8.3L369,524h2v5.72h-5.47l-3.21,5.21h-7.48v-2.7c.63-.88,1.32-1.76,1.95-2.64,1.32-1.82,2.7-3.71,4.08-5.72s2.71-3.83,4.09-5.78,2.58-3.84,3.71-5.66Zm26.71,15.46a20.23,20.23,0,0,0,2.64.95,10,10,0,0,0,2.89.44c1.7,0,2.64-.32,2.77-1,.06-.5-.25-1.07-1-1.76s-1.51-1.38-2.32-2.14a9.75,9.75,0,0,1-1.95-2.57,5.19,5.19,0,0,1-.38-3.27,6.65,6.65,0,0,1,3.52-4.91,13.43,13.43,0,0,1,6.92-1.63c1.07,0,2.07.06,2.89.12s2,.32,3.39.63l-.63,6.48a12,12,0,0,0-5-1.13c-1.51,0-2.33.37-2.45,1.07-.07.44.25,1,.94,1.69l2.33,2.14a8.83,8.83,0,0,1,1.94,2.39,4,4,0,0,1,.51,2.95,7.08,7.08,0,0,1-2,4,9.85,9.85,0,0,1-3.9,2.32,15.66,15.66,0,0,1-4.84.69,16.1,16.1,0,0,1-1.7-.06,17.14,17.14,0,0,1-1.89-.13c-.69-.12-1.25-.18-1.76-.25a12,12,0,0,0-1.57-.25l.63-6.79ZM371,529.69h2.51a52.06,52.06,0,0,1,.75,5.21h9.12c-1.89-9.17-3.33-16.65-4.28-22.5H371v8.3l1.38-2.2.69,5.47H371v5.72Zm61.47-17.61v6.17a4.67,4.67,0,0,0-.94.25,6.83,6.83,0,0,0-2,1.25,7.8,7.8,0,0,0-1.51,1.89,8.26,8.26,0,0,0-.82,2.39,5,5,0,0,0,.19,2.76,4.1,4.1,0,0,0,1.57,1.83,5.09,5.09,0,0,0,2.39.63,7.11,7.11,0,0,0,1.13-.13v6.16c-.75.06-1.57.06-2.39.06a17.63,17.63,0,0,1-5.72-.81,10.56,10.56,0,0,1-3.89-2.39,7.85,7.85,0,0,1-2-3.52,11,11,0,0,1-.13-4.34,13.85,13.85,0,0,1,1.89-5,13.44,13.44,0,0,1,3.58-4,14.94,14.94,0,0,1,5-2.51,16.3,16.3,0,0,1,3.64-.76Zm0,23.2a17.82,17.82,0,0,0,6-1.63,14.23,14.23,0,0,0,8.1-10.38,11.26,11.26,0,0,0-.06-4.14,7.88,7.88,0,0,0-1.76-3.65A9.53,9.53,0,0,0,441,512.9a16.47,16.47,0,0,0-6-.94,17.31,17.31,0,0,0-2.52.12v6.17a3.59,3.59,0,0,1,1.2-.19,4.43,4.43,0,0,1,2.39.69,3.82,3.82,0,0,1,1.51,1.88,4.89,4.89,0,0,1,.18,2.71,8.11,8.11,0,0,1-1.32,3,6.73,6.73,0,0,1-2.32,2.14,5.83,5.83,0,0,1-1.64.63v6.16Zm38.1-2.45c-.19.69-.38,1.38-.51,2.07h.51v-2.07Zm0-20.31v4l-.32,2.46a17.82,17.82,0,0,0-5-.88,8.38,8.38,0,0,0-4,.94,9.22,9.22,0,0,0-2.82,2.33,7.68,7.68,0,0,0-1.33,2.89,3.88,3.88,0,0,0,1.07,3.77,5.52,5.52,0,0,0,3.71,1.26,25,25,0,0,0,6.29-1l-2.33,6.6a42,42,0,0,1-6.41.44,16.46,16.46,0,0,1-6.22-1.07,8.18,8.18,0,0,1-4.21-3.64,9.17,9.17,0,0,1-.76-6.29,14.28,14.28,0,0,1,3.27-6.85,16.11,16.11,0,0,1,6-4.21,20.46,20.46,0,0,1,7.23-1.32,45.37,45.37,0,0,1,5.79.56Zm0,4,.5-3.89c-.19,0-.31-.07-.5-.07v4ZM482,532.2c-.69.88-1.39,1.82-2.08,2.7H482v-2.7Zm0-19.8v8.36c-.25,1.07-.51,2.07-.69,3-.38,1.7-.76,3.52-1.13,5.54s-.76,3.89-1.07,5.65H470.6v-2.07c2-8.24,3.52-15,4.46-20.43Zm0,8.36c.12-.75.31-1.51.5-2.26.44-1.89.94-3.9,1.51-6.1h-2v8.36Zm16.15-8.36v8.3l-2,3.27h2v5.72h-5.47l-3.2,5.21H482v-2.7c.63-.88,1.32-1.76,1.95-2.64,1.32-1.82,2.7-3.71,4.08-5.72s2.71-3.83,4-5.78,2.64-3.84,3.77-5.66Zm0,17.29h2.52c.44,2.45.63,4.21.75,5.21h9.12c-1.89-9.17-3.33-16.65-4.28-22.5h-8.11v8.3l1.39-2.2.69,5.47h-2.08Z" transform="translate(-44.11 -498.13)"/><path class="cls-2" d="M92,545.45c22-9.28,31.86-23.86,28.22-34.8-2.5-7.55-12.44-12.47-25.79-12.52a63.63,63.63,0,0,0-14.33,1.66,69.32,69.32,0,0,0-7,2.06c-22,9.35-31.79,23.86-28.22,34.8,2.49,7.55,12.44,12.51,25.85,12.55a64,64,0,0,0,14.42-1.69A46.32,46.32,0,0,0,92,545.45Z" transform="translate(-44.11 -498.13)"/><path class="cls-3" d="M84.86,545.77c-18.79,4.28-34.17-.72-37.26-10.07-3.33-10.15,5.79-23.63,26.16-32.19-1,11.73-16.8,14-15.85,24.58C69.88,529.2,69.72,544.66,84.86,545.77Z" transform="translate(-44.11 -498.13)"/><path class="cls-1" d="M72.89,513.34l-3.09.48-.48,3.09,3.17-.32.4-3.25Zm-4.6,4.6-2.14.4-.31,2.85,2.29-.16.16-3.09Zm-3.09,4.2-1.58.16v2.78l1.58.23v-3.17Zm7-.24-3.25.08v3.49l3.25.08V521.9Zm-3.89,4.36L65.84,526l.31,3.25,2.46.39-.32-3.41Zm4.28,4.52-3.25-.39.48,3.09,3.09.55-.32-3.25Zm.88,6v.47l-2.78-.71L70,534.11l3.09.64.4,2.06Zm0-6v1l-.08-1Zm0-4.36v3.65h-.16l-.16-3.65Zm0-4.52v3.57h-.4V521.9Zm0-4.52V521h-.32l.16-3.57Zm0-1.42v.63h-.08l.08-.63Zm17.28-6.11-3.33-.39.32,2.69,3.56.32-.55-2.62Zm-8.41-4.43-2.93.15L79,506.68a15.75,15.75,0,0,1,3.25-.23l.07-1Zm3.89,1.5L83,506.76v2l3.57.08-.32-1.9Zm-4.12,2.38-3.57.16-.24,2.77,3.81-.16V509.3Zm4.75,3.57H83L83,516.2l4,.08-.24-3.41Zm-9.19,25.52L74.48,538l.55,1.82,3.09.48-.47-1.91Zm4.44-3.09-3.81-.16.16,2.78,3.65.16V535.3Zm.87,3.25,3.57-.08-.32,2-3.25.08v-2Zm4.68-3.49,3.64-.31-.47,2.69-3.41.4.24-2.78Zm-4.68-4h4.12l-.16,3.25-4,.16V531.1Zm-5.07-4.52,4.2-.08v3.81L78,530.23l-.07-3.65Zm.15-9.43,4-.08v3.8L78,521l.08-3.8Zm5.08,4.59h4v3.81h-4v-3.81Zm-9.67-5.15h0l3.64-.31.16-3.26-3.49.24-.31,2.7v.63Zm0,4.36h0l3.56-.08v-3.64l-3.56.15V521Zm0,4.52h0l3.48.08v-3.73l-3.48.08v3.57Zm0,4.6h0l3.56.16V526.5l-3.56-.08v3.65Zm0,1.66h0l.23,2.38,3.65.32-.24-3.33-3.64-.32v1Zm0,5.55h0l.08.08-.08-.55v.47ZM91.6,526.34V530l-3.49.24v-3.89Zm0-4.52v3.65l-3.49.08v-3.81l3.49.08Zm0-4.51V521l-3.49-.08L88,517.15l3.65.16Zm0-1.83v.95L88,516.2,87.72,513l3.64.31.24,2.22Zm0-5.47v.48l-.08-.48Zm-9.35,31.63h3.48v1.59H82.25v-1.59ZM96.91,521.9l2.46.16v3.25l-2.46.08V521.9Zm1.35-7.21-2.14-.55.39,2.69,2.3.4-.55-2.54Zm2.85,4-1.66-.47.39,3.09,1.59.24-.32-2.86Zm-5.23-1.11-3.25-.24.16,3.57,3.33.16-.24-3.49Zm4,8.25,1.59-.16-.32,2.85-1.58.48.31-3.17Zm-7.29,4.83,3.25-.31-.47,3.09-3.18.55.4-3.33Zm.24-4.44,3.25-.08-.16,3.41-3.25.32.16-3.65ZM91.6,510.49h0l.48,2.14,2.93.47-.64-2.53L91.6,510v.48Zm0,5.94h0l.08.08-.08-1v.95Zm0,4.52h.32l-.16-3.64H91.6V521Zm0,4.52H92v-3.65h-.4v3.65Zm0,4.52h.16l.24-3.65h-.4Z" transform="translate(-44.11 -498.13)"/><path class="cls-4" d="M80.18,501.53c18.79-4.28,34.17.71,37.26,10.07,3.33,10.14-5.78,23.62-26.16,32.18,1.11-11.73,16.89-14,15.94-24.49C95.25,518.1,95.33,502.64,80.18,501.53Z" transform="translate(-44.11 -498.13)"/></svg>